<?xml version="1.0" standalone="no"?>
<!DOCTYPE svg PUBLIC "-//W3C//DTD SVG 20010904//EN"
 "http://www.w3.org/TR/2001/REC-SVG-20010904/DTD/svg10.dtd">
<svg version="1.0" xmlns="http://www.w3.org/2000/svg"
 width="454.000000pt" height="455.000000pt" viewBox="0 0 454.000000 455.000000"
 preserveAspectRatio="xMidYMid meet">

<g transform="translate(0.000000,455.000000) scale(0.100000,-0.100000)"
fill="#000000" stroke="none">
<path d="M3615 4480 c-254 -36 -274 -37 -330 -24 -114 26 -185 16 -236 -32
-16 -15 -43 -28 -68 -31 -22 -3 -46 -12 -53 -21 -14 -17 -21 -592 -7 -627 4
-11 8 118 8 286 1 233 4 309 14 316 6 6 34 13 60 16 34 3 53 11 63 26 38 53
156 71 251 38 39 -13 62 -12 324 24 154 21 288 40 296 43 22 9 5 26 -25 25
-15 -1 -148 -18 -297 -39z"/>
<path d="M3657 4410 c-120 -15 -221 -31 -224 -34 -4 -3 -2 -6 3 -6 5 0 20 -10
34 -21 23 -19 24 -20 2 -9 -13 6 -37 10 -55 8 -26 -2 -33 -8 -35 -30 -3 -28
16 -53 68 -91 14 -10 19 -15 11 -11 -9 5 -12 3 -7 -5 9 -13 66 -44 66 -35 0 4
7 1 15 -6 12 -10 18 -10 30 0 28 23 18 67 -27 118 -46 51 -45 50 51 -24 125
-96 237 -263 248 -367 7 -71 -14 -118 -68 -153 -38 -24 -49 -26 -113 -22 -206
14 -480 226 -581 450 -16 35 -30 84 -33 111 -5 48 -9 51 -49 41 l-23 -6 0
-298 c0 -337 -8 -309 88 -311 31 0 77 -4 102 -7 l45 -7 -29 -28 c-30 -28 -46
-34 -46 -17 0 6 -18 10 -39 10 -22 0 -43 -4 -46 -10 -9 -15 -52 -12 -88 7 -31
15 -31 15 -17 -2 15 -18 14 -18 -12 -1 -25 17 -42 36 -18 21 6 -3 10 -4 10 -1
0 3 -10 10 -21 17 -15 7 -19 8 -15 0 5 -7 1 -9 -8 -5 -9 3 -14 10 -11 14 5 9
-48 30 -75 30 -10 0 -78 -35 -151 -78 -334 -196 -282 -175 -629 -253 -170 -38
-321 -69 -334 -69 -13 0 -27 6 -29 13 -3 6 -6 -4 -6 -24 -1 -20 -4 -50 -7 -66
l-6 -30 79 5 c54 3 91 -1 122 -11 25 -9 48 -14 52 -12 13 9 200 47 205 42 3
-2 -3 -59 -12 -126 -9 -67 -15 -124 -12 -126 2 -2 64 10 137 26 74 16 136 27
139 24 3 -3 -2 -13 -11 -22 -11 -12 -58 -22 -154 -34 -76 -10 -145 -19 -153
-19 -8 -1 1 -10 22 -20 61 -33 97 -93 57 -96 -8 -1 -23 -3 -34 -4 -11 -1 -15
-4 -7 -7 6 -2 10 -9 6 -14 -3 -5 8 -12 25 -15 35 -7 40 -31 17 -76 -13 -24
-13 -28 0 -28 8 0 14 11 15 28 0 26 1 25 14 -9 7 -19 22 -54 34 -78 13 -24 21
-45 19 -47 -2 -1 -24 -6 -48 -10 l-44 -7 17 26 c25 39 21 43 -9 7 -49 -57 -97
-75 -204 -75 -79 0 -102 4 -137 23 -46 24 -93 70 -93 90 0 9 -5 10 -19 2 -29
-15 -152 -12 -201 5 -55 19 -57 19 -34 -7 l19 -23 -22 19 c-12 10 -21 21 -20
25 1 3 -14 21 -33 39 -31 30 -34 38 -35 92 0 52 4 62 30 90 31 33 86 66 120
71 27 4 71 -27 79 -54 3 -12 6 -24 7 -27 3 -9 73 -39 91 -40 10 0 22 -9 28
-20 13 -24 68 -28 76 -5 3 8 30 21 59 30 30 8 57 20 60 25 4 6 11 8 16 5 5 -4
9 3 9 14 0 10 3 27 6 36 5 13 -1 12 -37 -7 -58 -30 -178 -37 -245 -14 -60 20
-61 20 -38 -6 l19 -23 -22 19 c-12 10 -21 21 -20 25 1 3 -14 21 -33 40 -33 31
-35 37 -35 97 0 35 -3 64 -7 64 -5 0 -8 -22 -8 -50 0 -36 -4 -50 -14 -50 -17
0 -26 22 -26 65 0 20 -6 35 -15 39 -12 4 -15 -5 -15 -49 0 -29 -5 -57 -11 -60
-15 -10 -18 -5 -20 47 -2 35 -7 48 -21 51 -16 5 -18 -2 -18 -54 0 -88 -29 -75
-31 14 -1 40 -16 106 -18 79 -1 -7 -6 -10 -11 -7 -7 4 -9 -20 -8 -68 2 -41 6
-70 9 -65 4 6 12 7 18 3 9 -5 9 -11 -1 -22 -11 -14 -9 -15 19 -9 39 9 50 -7
22 -33 -13 -12 -31 -18 -47 -15 -27 4 -27 3 -6 -11 19 -14 20 -20 11 -63 -12
-53 -20 -62 -59 -62 -18 0 -31 8 -39 23 -7 12 -17 25 -22 29 -7 4 -6 33 2 85
18 113 19 116 48 110 21 -4 24 -1 20 17 -3 11 -11 55 -17 97 -12 73 -13 76
-30 59 -9 -9 -47 -23 -82 -30 -56 -10 -70 -10 -94 3 -69 36 -150 155 -248 361
-44 91 -81 164 -83 162 -2 -2 1 -16 7 -31 9 -24 9 -26 -4 -16 -10 8 -16 9 -21
1 -4 -6 -15 0 -28 17 -11 15 -22 30 -24 33 -2 2 -8 -2 -13 -10 -5 -8 -3 -21 5
-33 9 -14 11 -27 5 -43 -5 -13 -7 -39 -3 -56 5 -27 3 -31 -7 -21 -11 10 -16 8
-25 -10 -6 -12 -17 -21 -25 -19 -7 2 -20 -4 -30 -13 -16 -15 -19 -14 -37 8
-16 21 -22 23 -36 12 -19 -14 -12 -25 16 -25 10 0 17 -5 14 -12 -2 -8 -21 -13
-45 -13 -22 0 -44 -4 -49 -8 -4 -5 4 -6 20 -2 22 6 26 4 21 -9 -8 -22 -60 -21
-73 2 -6 9 -10 13 -11 7 0 -5 4 -17 9 -25 13 -19 2 -34 -14 -20 -11 9 -12 7
-8 -9 7 -28 -11 -27 -25 2 -10 21 -10 21 -9 -7 4 -57 -59 -61 -74 -5 -4 13 -7
20 -8 16 -1 -5 -17 1 -37 12 -45 27 -57 20 -38 -25 13 -31 13 -37 0 -50 -13
-13 -19 -9 -47 32 -30 44 -31 48 -14 60 10 7 22 11 27 8 5 -3 26 5 46 19 106
72 367 212 430 232 13 4 27 18 32 31 6 15 17 24 31 24 19 0 19 13 1 16 -4 0
-15 4 -25 9 -13 5 -26 0 -45 -17 -15 -14 -74 -48 -132 -76 -58 -28 -157 -82
-221 -120 -64 -38 -128 -72 -142 -75 -13 -4 -27 -14 -31 -22 -7 -18 26 -106
55 -146 10 -15 19 -30 19 -34 0 -4 10 -21 22 -38 51 -71 89 -142 94 -177 5
-32 2 -41 -25 -69 -38 -39 -39 -56 -11 -275 15 -115 27 -171 44 -205 13 -25
28 -62 34 -81 11 -33 64 -452 212 -1680 33 -272 65 -512 70 -533 7 -22 22 -44
38 -54 38 -25 40 -29 47 -109 4 -39 10 -77 14 -83 9 -14 -190 -37 1956 224
935 114 1703 210 1707 214 4 4 -57 540 -136 1191 -79 652 -150 1238 -156 1303
l-12 117 -58 0 -57 0 -6 42 c-4 30 -14 50 -33 66 -31 27 -21 28 -339 -12 -127
-16 -193 -29 -224 -45 -25 -11 -46 -21 -47 -21 -2 0 7 11 19 24 28 29 71 51
118 60 59 11 67 29 44 104 -6 18 -3 22 13 22 24 0 27 4 36 46 7 31 7 31 -41
37 -26 3 -52 1 -57 -4 -6 -5 -15 -9 -20 -9 -6 0 -5 4 2 9 11 7 11 14 0 41 -13
31 -12 35 9 58 24 26 41 26 172 1 l53 -11 -36 -30 c-51 -41 -38 -47 18 -8 66
45 62 67 -11 75 -32 4 -83 10 -113 15 -30 4 -59 5 -64 2 -16 -9 -66 -12 -66
-3 0 20 40 43 65 37 20 -5 32 0 55 24 26 27 30 36 24 67 l-7 35 94 -7 c52 -3
138 -11 193 -16 54 -5 116 -9 137 -9 l39 0 0 395 0 395 -32 -1 c-18 0 -131
-14 -251 -29z m-593 -258 c4 -7 2 -26 -4 -42 -17 -41 -6 -74 40 -124 35 -38
62 -54 148 -87 12 -5 24 -14 26 -21 15 -59 33 -98 57 -126 30 -34 39 -59 17
-46 -193 113 -358 329 -358 471 0 19 7 50 16 71 l16 37 17 -60 c9 -33 20 -66
25 -73z m300 -348 c9 -3 13 -10 10 -15 -8 -14 -21 -11 -28 6 -6 17 -4 18 18 9z
m36 -59 c-11 -21 -15 -23 -22 -11 -12 21 10 62 25 47 8 -8 7 -18 -3 -36z m36
-42 c-3 -3 -13 -3 -22 1 -13 5 -14 9 -3 22 11 14 13 14 22 -1 5 -9 6 -19 3
-22z m124 7 c8 -5 11 -10 5 -10 -5 0 -17 5 -25 10 -8 5 -10 10 -5 10 6 0 17
-5 25 -10z m-182 -38 c20 -26 14 -32 -25 -32 -26 1 -47 9 -65 25 -16 13 -28
25 -28 27 0 2 24 2 52 0 34 -2 58 -9 66 -20z m38 1 c-6 -16 -6 -16 12 0 10 9
22 14 25 10 13 -12 7 -38 -12 -50 -16 -10 -20 -7 -34 23 -15 31 -15 34 -1 34
11 0 14 -5 10 -17z m-211 -44 c-4 -5 -18 -14 -31 -19 -13 -5 -24 -14 -24 -20
0 -12 15 -6 43 18 16 14 19 14 31 -4 10 -13 11 -22 4 -29 -7 -7 -12 -6 -15 3
-3 6 -9 12 -15 12 -7 0 -6 -5 1 -14 9 -11 6 -18 -15 -35 -31 -24 -43 -26 -48
-8 -15 50 -17 52 -27 37 -8 -11 -8 -9 -3 10 4 13 18 33 32 45 56 44 57 44 65
29 4 -8 5 -19 2 -25z m-491 4 c-7 -16 -14 -33 -14 -39 0 -14 -28 -26 -41 -18
-5 3 -8 0 -7 -7 2 -6 -3 -14 -11 -17 -9 -3 -11 0 -6 9 5 8 4 11 -1 6 -5 -5 -9
-14 -9 -19 0 -6 -6 -13 -14 -16 -9 -3 -11 0 -6 8 5 9 4 11 -3 6 -7 -4 -12 -14
-12 -22 0 -8 -9 -14 -20 -14 -11 0 -20 -4 -20 -10 0 -12 -80 -64 -87 -57 -2 3
0 15 7 26 6 12 7 21 3 21 -4 0 7 9 25 20 18 11 38 18 43 14 5 -3 8 -1 7 5 -2
8 149 118 179 130 1 1 -5 -11 -13 -26z m128 1 l31 -16 -32 -20 c-37 -24 -39
-23 -47 20 -7 37 2 40 48 16z m288 2 c0 -3 -4 -8 -10 -11 -5 -3 -10 -1 -10 4
0 6 5 11 10 11 6 0 10 -2 10 -4z m-370 -10 c0 -2 -7 -7 -16 -10 -8 -3 -12 -2
-9 4 6 10 25 14 25 6z m531 -11 c1 -17 -18 -17 -25 0 -4 11 -1 15 10 13 8 -2
15 -7 15 -13z m106 -17 c-3 -7 -5 -2 -5 12 0 14 2 19 5 13 2 -7 2 -19 0 -25z
m73 18 c0 -16 -28 -42 -36 -33 -8 7 14 47 26 47 6 0 10 -6 10 -14z m-145 -26
c0 -20 -41 -44 -51 -29 -5 8 -3 9 6 4 10 -6 12 -4 7 7 -6 17 12 40 28 35 5 -2
10 -9 10 -17z m-379 -22 l44 -31 -60 -44 c-33 -23 -63 -43 -68 -43 -4 0 -17
22 -29 49 l-21 49 37 26 c19 14 40 26 44 26 5 0 29 -14 53 -32z m-176 13 c0
-5 -7 -12 -16 -15 -14 -5 -15 -4 -4 9 14 17 20 19 20 6z m600 -10 c0 -11 -39
-41 -52 -41 -15 0 -8 29 10 39 22 13 42 14 42 2z m-658 -31 c6 -38 -1 -43 -40
-28 -27 10 -35 10 -48 -4 -15 -15 -15 -16 5 -23 11 -3 28 -2 38 4 21 10 63
-12 44 -24 -6 -3 -11 -1 -11 5 0 6 -5 8 -10 5 -6 -4 -8 -11 -5 -16 5 -7 -199
-150 -237 -167 -9 -4 -10 73 -2 103 3 11 30 36 61 55 30 19 85 54 122 77 36
24 69 43 72 43 4 0 9 -14 11 -30z m58 5 c-7 -8 -17 -15 -22 -15 -6 0 -5 7 2
15 7 8 17 15 22 15 6 0 5 -7 -2 -15z m490 -10 c14 -17 14 -17 -43 -59 -42 -31
-42 -31 -55 4 -8 21 -5 28 21 47 36 27 60 29 77 8z m-145 -5 c-3 -5 -12 -10
-18 -10 -7 0 -6 4 3 10 19 12 23 12 15 0z m-335 -20 c-24 -15 -37 -11 -16 5
11 8 22 12 25 9 3 -3 -1 -9 -9 -14z m288 -44 l32 -30 -72 -47 -73 -47 -38 31
c-22 18 -39 37 -39 42 -1 6 28 31 63 56 70 50 66 51 127 -5z m-408 34 c0 -5
-7 -10 -16 -10 -8 0 -12 5 -9 10 3 6 10 10 16 10 5 0 9 -4 9 -10z m647 -30 c1
-17 -5 -30 -20 -39 -12 -8 -31 -20 -43 -28 -18 -11 -23 -10 -43 11 l-22 23 42
31 c52 38 83 39 86 2z m-507 10 c0 -5 -7 -10 -16 -10 -8 0 -12 5 -9 10 3 6 10
10 16 10 5 0 9 -4 9 -10z m-2062 -32 c27 -29 44 -76 37 -99 -13 -41 -347 -229
-406 -229 -46 0 -102 97 -76 131 19 26 147 105 254 158 144 71 157 74 191 39z
m2022 -70 c13 -35 25 -68 27 -74 4 -10 -305 -220 -312 -212 -7 7 -25 112 -25
143 0 32 6 37 133 119 72 47 137 86 143 86 6 0 22 -28 34 -62z m590 7 c0 -6
-6 -17 -12 -25 -11 -12 -10 -12 4 -1 16 12 20 10 33 -20 13 -32 13 -35 -7 -52
-21 -17 -22 -17 -49 9 -26 25 -27 28 -11 41 15 13 15 13 -4 4 -17 -8 -26 -6
-44 14 -26 27 -26 27 22 60 l33 23 17 -21 c10 -12 18 -27 18 -32z m-164 -53
c-3 -5 -33 -26 -68 -46 l-61 -37 -39 39 -39 38 68 46 68 46 39 -38 c21 -21 36
-42 32 -48z m-771 48 c-3 -5 -12 -10 -18 -10 -7 0 -6 4 3 10 19 12 23 12 15 0z
m-1539 -32 c33 -38 95 -138 85 -138 -5 0 -11 6 -14 13 -3 9 -9 9 -25 0 -18
-11 -24 -7 -55 30 l-35 42 -7 -30 c-21 -87 -44 -120 -108 -155 -34 -18 -84
-48 -112 -66 -27 -17 -75 -44 -105 -59 -30 -15 -58 -33 -62 -39 -4 -6 -8 -8
-8 -3 0 18 -50 -27 -51 -47 0 -19 -1 -19 -11 4 -63 141 -71 173 -48 188 14 9
19 6 28 -14 10 -21 15 -23 39 -13 73 27 268 137 396 222 37 26 46 36 42 54 -4
19 4 29 26 32 3 1 14 -9 25 -21z m2345 -88 l18 -40 -45 -26 -46 -27 -34 35
-35 34 58 36 c32 20 60 35 62 32 2 -2 12 -22 22 -44z m210 19 c15 -28 24 -91
10 -68 -6 8 -12 27 -15 42 -2 15 -7 31 -11 37 -3 5 -4 10 -1 10 3 0 10 -10 17
-21z m-373 -94 c78 -65 82 -70 60 -78 -13 -4 -35 -6 -50 -3 -22 4 -26 2 -22
-12 6 -19 -27 36 -84 138 -42 74 -49 77 96 -45z m-68 101 c0 -3 -4 -8 -10 -11
-5 -3 -10 -1 -10 4 0 6 5 11 10 11 6 0 10 -2 10 -4z m424 -43 c9 -30 -10 -30
-41 -1 l-24 22 23 12 c25 13 29 10 42 -33z m-1021 22 c-3 -9 -8 -14 -10 -11
-3 3 -2 9 2 15 9 16 15 13 8 -4z m885 -20 c-3 -3 -9 2 -12 12 -6 14 -5 15 5 6
7 -7 10 -15 7 -18z m-423 -82 c25 -53 44 -103 43 -110 -4 -17 -329 -235 -342
-230 -13 5 -66 174 -66 209 0 18 18 35 78 73 42 27 111 73 152 102 41 29 78
53 82 53 4 0 27 -44 53 -97z m185 77 c0 -5 -5 -10 -11 -10 -5 0 -7 5 -4 10 3
6 8 10 11 10 2 0 4 -4 4 -10z m286 -29 l24 -19 -25 -16 c-24 -16 -26 -16 -35
10 -9 24 -6 44 7 44 2 0 16 -9 29 -19z m84 -28 c0 -1 -11 2 -25 9 -13 6 -22
15 -19 19 4 7 44 -19 44 -28z m-155 -20 c5 -20 2 -31 -11 -40 -14 -10 -22 -9
-45 8 -16 11 -29 22 -29 24 0 7 54 34 66 35 7 0 15 -12 19 -27z m-328 7 c17
13 17 13 1 -4 -16 -19 -38 -15 -38 7 0 8 4 7 9 -2 8 -13 12 -13 28 -1z m-530
-62 c-3 -8 -6 -5 -6 6 -1 11 2 17 5 13 3 -3 4 -12 1 -19z m808 -18 c-3 -5 -12
-10 -18 -10 -7 0 -6 4 3 10 19 12 23 12 15 0z m-838 -22 c-3 -8 -6 -5 -6 6 -1
11 2 17 5 13 3 -3 4 -12 1 -19z m1531 -134 c29 -59 50 -109 47 -113 -8 -7
-277 -41 -287 -35 -10 6 -121 215 -116 219 4 5 224 32 268 34 35 1 36 0 88
-105z m-2792 51 c-6 -16 -46 -21 -46 -6 0 6 10 17 22 26 24 16 35 7 24 -20z
m1853 -32 c12 -27 43 -83 68 -126 24 -43 42 -85 39 -92 -5 -14 -359 -265 -374
-265 -14 0 -123 283 -112 294 20 20 336 235 346 236 5 0 20 -21 33 -47z m355
-90 c31 -58 56 -110 56 -115 0 -4 -26 -8 -59 -8 l-58 0 -67 108 -66 107 37 6
c102 16 96 20 157 -98z m-2435 40 c-8 -9 -25 -28 -38 -42 -13 -14 -31 -43 -41
-63 -9 -21 -19 -35 -22 -32 -3 2 -9 -7 -12 -21 -4 -14 -11 -23 -16 -20 -6 3
-10 -2 -10 -12 0 -10 -10 -29 -23 -43 -13 -14 -26 -33 -30 -42 -3 -10 -11 -18
-17 -18 -5 0 -10 -6 -10 -13 0 -7 -12 -26 -27 -42 -16 -16 -27 -33 -25 -38 1
-5 -2 -6 -8 -2 -5 3 -10 11 -10 16 0 20 250 366 272 377 31 15 32 14 17 -5z
m2191 3 c0 -2 -8 -10 -17 -17 -16 -13 -17 -12 -4 4 13 16 21 21 21 13z m-608
-50 c7 4 8 2 4 -5 -9 -13 -26 -5 -25 12 0 9 2 8 6 -1 2 -6 10 -9 15 -6z m-62
-31 c0 -5 -5 -3 -10 5 -5 8 -10 20 -10 25 0 6 5 3 10 -5 5 -8 10 -19 10 -25z
m-1283 0 c0 -15 -10 -19 -36 -16 -8 2 -10 -2 -5 -11 6 -10 5 -11 -7 -1 -14 12
-64 11 -76 -1 -3 -3 -12 -1 -20 5 -8 8 -17 8 -25 2 -7 -5 -31 -9 -53 -8 -22 1
-48 -2 -57 -7 -13 -6 -16 -5 -12 7 4 10 19 15 43 15 20 0 43 6 50 13 10 8 12
8 7 0 -3 -6 -2 -14 3 -17 5 -3 11 1 14 9 5 11 13 12 36 5 17 -5 31 -6 31 -2 0
4 20 6 45 5 24 -1 47 2 50 8 9 13 12 11 12 -6z m1989 -22 c0 -10 5 -17 12 -15
8 1 11 -2 7 -9 -5 -8 -12 -6 -22 4 -9 8 -12 20 -9 26 10 16 14 14 12 -6z
m-2373 -4 c-4 -4 -28 -11 -53 -15 -42 -6 -44 -5 -25 9 20 16 93 21 78 6z
m-339 -45 c3 -8 2 -12 -4 -9 -6 3 -10 10 -10 16 0 14 7 11 14 -7z m896 -39 c0
-28 38 -91 75 -123 41 -37 96 -62 133 -62 52 0 12 -11 -97 -26 -62 -8 -114
-14 -116 -12 -11 13 -115 210 -115 217 0 9 32 16 93 19 18 1 27 -3 27 -13z
m70 -15 c14 0 40 -59 28 -66 -19 -12 11 -28 59 -30 35 -2 52 -9 62 -24 18 -27
76 -28 90 -1 15 27 79 37 100 16 14 -14 14 -17 1 -25 -57 -37 -206 -38 -275
-2 -61 31 -96 73 -102 123 -6 41 -5 43 11 26 10 -9 21 -17 26 -17z m-845 -19
c6 -10 -21 -41 -35 -41 -19 0 -22 24 -5 37 22 15 32 16 40 4z m2690 -163 c50
-83 91 -156 93 -163 3 -12 -389 -295 -408 -295 -6 0 -47 75 -91 167 -66 137
-78 169 -67 180 23 23 363 261 373 262 6 0 51 -68 100 -151z m-2189 61 c13
-15 16 -24 8 -36 -20 -32 -41 -38 -63 -19 -25 23 -26 39 -5 60 21 21 37 20 60
-5z m-542 -58 c21 -24 14 -57 -15 -66 -39 -13 -67 43 -37 73 17 17 32 15 52
-7z m3574 -103 c-3 -9 -109 -26 -332 -53 -184 -23 -324 -45 -319 -49 5 -5 2
-6 -6 -1 -11 6 -9 12 10 27 13 10 32 16 41 14 10 -2 20 0 23 5 3 4 11 6 18 4
7 -2 131 11 277 29 146 19 271 34 278 35 8 0 12 -5 10 -11z m-1425 -171 c3 -8
0 -14 -6 -15 -7 -1 -244 -31 -527 -66 -1077 -136 -1610 -199 -1617 -192 -4 3
-4 9 0 12 6 7 473 66 1507 194 349 43 636 78 636 79 1 0 4 -5 7 -12z m-1633
-66 c26 -49 -3 -101 -57 -101 -24 0 -31 15 -33 70 -3 51 -3 50 40 50 29 0 42
-5 50 -19z m-110 -23 c13 -25 13 -31 0 -55 -11 -20 -25 -29 -46 -31 -37 -4
-57 17 -57 60 0 60 73 78 103 26z m-122 -31 c-1 -18 2 -40 6 -49 12 -26 -20
-24 -36 2 -17 27 -28 25 -28 -5 0 -16 -6 -25 -15 -25 -9 0 -15 9 -15 23 0 12
-3 39 -6 59 -6 36 -6 37 27 40 51 5 69 -7 67 -45z m-114 17 c12 -31 6 -45 -23
-55 -22 -8 -28 -15 -24 -30 4 -12 0 -19 -10 -19 -17 0 -27 29 -27 83 0 36 1
37 39 37 26 0 41 -5 45 -16z m406 -35 c0 -5 -7 -9 -15 -9 -15 0 -20 12 -9 23
8 8 24 -1 24 -14z m2237 -104 c56 -17 81 -45 90 -100 l5 -33 -57 0 c-48 1 -61
5 -78 24 -22 25 -69 32 -97 14 -9 -6 -17 -5 -22 3 -5 8 -8 6 -8 -5 0 -22 -35
-24 -44 -3 -3 8 -1 15 5 15 6 0 8 8 5 18 -7 21 12 42 59 66 38 20 78 20 142 1z
m-309 -81 c3 -50 2 -51 -29 -58 -17 -3 -46 -6 -65 -6 -36 0 -44 -8 -49 -45 -3
-29 18 -49 44 -42 10 2 25 0 34 -4 10 -6 18 -5 22 1 3 5 14 10 24 10 21 0 31
-26 31 -79 0 -31 -2 -33 -30 -29 -16 3 -30 1 -30 -4 0 -4 -16 -8 -36 -8 l-36
0 7 -52 c4 -29 8 -54 9 -54 0 -1 32 3 70 8 38 5 72 6 76 1 5 -4 11 -31 15 -59
l7 -51 -34 -6 c-73 -13 -239 -30 -243 -25 -3 3 -17 97 -30 209 -14 112 -27
216 -29 230 -4 20 1 29 20 39 13 7 24 20 24 29 0 11 -4 9 -16 -7 -20 -29 -34
-28 -34 3 0 21 5 25 29 25 22 0 31 -6 41 -30 15 -36 37 -39 50 -6 9 25 43 50
53 40 3 -3 16 1 29 10 13 9 34 15 48 14 23 -3 25 -8 28 -54z m-484 20 c22 -8
20 -34 -1 -34 -14 0 -15 -2 -4 -9 11 -7 13 -29 8 -102 -3 -52 -8 -107 -11
-124 -3 -16 -8 -70 -10 -120 -7 -118 -16 -185 -26 -185 -5 0 -16 -3 -26 -7
-12 -5 -15 -3 -9 6 6 10 3 11 -11 3 -11 -5 -24 -7 -31 -5 -6 2 -14 0 -17 -6
-6 -9 -17 -8 -56 7 -8 3 -19 6 -25 6 -12 1 -32 42 -39 79 -3 16 -10 35 -17 43
-6 8 -8 14 -3 14 5 0 3 4 -3 8 -7 5 -20 39 -30 78 -9 38 -20 71 -23 74 -12 9
-79 210 -71 210 5 0 23 3 40 6 30 6 31 5 33 -27 l1 -34 4 33 c5 37 37 46 46
12 3 -13 11 -18 21 -14 11 4 17 -2 22 -23 6 -26 31 -120 74 -283 l18 -65 -2
82 c0 52 3 86 11 94 8 8 9 18 4 28 -12 22 -11 230 1 237 6 4 33 10 62 14 28 4
52 8 53 9 1 0 8 -2 17 -5z m126 -24 c0 -5 8 -10 18 -10 10 0 19 -7 19 -15 0
-8 -4 -15 -8 -15 -4 0 -10 -7 -13 -16 -5 -12 -2 -15 12 -12 19 5 22 -3 25 -72
1 -19 7 -38 12 -42 7 -5 6 -14 -2 -27 -7 -10 -10 -31 -7 -45 3 -17 0 -26 -8
-26 -9 0 -9 -3 2 -9 8 -6 17 -8 21 -5 4 2 9 -10 11 -26 3 -16 0 -32 -6 -34 -8
-3 -8 -7 0 -13 6 -4 13 -25 16 -45 3 -29 1 -35 -9 -26 -7 6 -13 7 -13 2 0 -5
-20 -9 -45 -9 -31 0 -44 4 -41 12 3 6 1 13 -5 15 -7 2 -59 355 -59 405 0 6 8
14 18 16 32 9 62 7 62 -3z m-383 -26 c-1 -2 -13 -1 -26 3 -16 4 -19 8 -10 14
12 7 45 -9 36 -17z m883 -24 c0 -6 -6 -13 -14 -16 -8 -3 -11 -15 -8 -30 5 -27
-22 -35 -32 -8 -3 8 -2 12 4 9 6 -3 10 -2 10 4 0 5 -6 12 -12 15 -9 3 -7 9 6
20 23 18 46 21 46 6z m66 -8 c6 -10 45 -34 87 -55 94 -47 140 -96 135 -143 -2
-19 0 -34 5 -34 14 0 -4 -62 -25 -89 -29 -37 -52 -50 -108 -61 -85 -16 -170
17 -182 70 -2 8 -7 18 -11 21 -4 3 -10 21 -13 40 -6 33 -4 35 25 37 21 2 31
-2 31 -12 0 -8 -5 -16 -12 -18 -15 -5 -2 -58 15 -58 7 0 20 9 30 20 16 19 16
20 -3 20 -35 0 -19 53 17 58 18 2 24 -4 31 -30 7 -27 14 -34 39 -36 23 -2 32
1 36 17 7 29 -15 54 -71 80 -52 24 -61 38 -68 101 -2 19 -5 44 -7 55 -3 11 -2
23 0 28 8 13 38 7 49 -11z m-1230 -9 c10 -10 19 -16 20 -13 2 3 13 -3 24 -13
12 -10 18 -22 15 -28 -4 -5 -1 -8 6 -7 7 2 15 -5 17 -14 2 -12 -1 -16 -10 -13
-9 4 -13 -3 -13 -20 0 -24 6 -29 31 -26 7 1 14 -12 16 -29 4 -25 2 -30 -11
-25 -13 4 -13 3 1 -8 11 -9 19 -37 25 -88 21 -195 -18 -258 -164 -261 -74 -2
-119 13 -137 47 -6 11 -17 24 -23 28 -7 4 -13 15 -13 24 0 13 3 13 16 2 14
-11 15 -9 12 17 -2 21 -8 29 -22 29 -13 0 -20 8 -22 28 -1 15 2 27 7 27 6 0 7
-5 3 -12 -4 -6 -3 -8 3 -5 6 4 8 19 5 34 -4 24 -6 25 -12 8 -6 -17 -8 -16 -14
9 -11 46 -19 173 -12 209 9 46 58 94 109 105 70 16 124 14 143 -5z m-341 -63
c3 -6 -1 -17 -9 -26 -9 -9 -14 -20 -11 -25 4 -5 1 -9 -4 -9 -6 0 -11 4 -11 9
0 5 -11 11 -25 13 -20 4 -25 1 -25 -14 0 -16 3 -17 21 -7 13 6 19 7 15 1 -9
-15 16 -21 38 -9 15 7 18 6 13 -6 -3 -9 -2 -17 3 -19 10 -4 62 -407 54 -419
-8 -14 -64 -11 -64 3 0 6 -6 3 -14 -8 -8 -10 -18 -15 -23 -11 -11 12 -31 261
-21 268 13 8 -2 39 -18 39 -8 0 -14 -6 -14 -14 0 -17 -29 -115 -41 -138 -5
-10 -9 -26 -9 -37 0 -28 -38 -34 -54 -8 -7 12 -28 46 -46 75 -18 30 -33 60
-33 68 0 8 -5 14 -10 14 -9 0 -6 -47 8 -121 17 -90 21 -148 11 -161 -7 -8 -33
-15 -63 -17 -43 -2 -53 0 -53 14 0 9 5 13 10 10 6 -3 10 -2 10 3 0 14 46 20
67 9 15 -9 16 -8 6 5 -7 8 -10 18 -6 21 3 4 1 7 -5 7 -6 0 -14 -5 -18 -11 -5
-8 -10 -6 -16 5 -6 11 -16 15 -28 11 -22 -7 -31 32 -55 235 -8 74 -18 151 -21
172 -5 34 -4 36 27 43 22 5 34 4 37 -4 2 -6 13 -11 25 -11 16 0 18 3 9 9 -11
7 -11 9 2 14 10 4 23 -8 40 -40 14 -25 26 -48 26 -50 0 -8 83 -144 85 -141 2
2 13 41 25 88 12 47 24 92 27 100 3 8 8 24 10 34 5 28 8 29 61 37 26 3 50 7
54 8 4 0 10 -4 13 -9z m1090 -360 c18 -20 17 -20 -12 -20 -17 0 -45 -3 -62 -6
-28 -6 -31 -4 -31 17 0 19 2 21 10 9 6 -9 10 -10 10 -3 0 6 12 14 28 16 15 2
30 5 33 6 3 0 14 -8 24 -19z m-1440 -140 c3 -5 1 -10 -4 -10 -6 0 -11 5 -11
10 0 6 2 10 4 10 3 0 8 -4 11 -10z m2925 -40 c0 -5 -1 -10 -2 -10 -2 0 -145
-18 -318 -40 -173 -22 -481 -60 -685 -85 -203 -24 -734 -89 -1180 -144 -1173
-146 -1379 -169 -1389 -160 -15 13 3 16 269 49 138 17 372 46 520 65 149 19
441 55 650 80 209 25 526 62 705 84 179 22 426 51 550 66 124 15 360 44 525
65 334 42 355 44 355 30z m50 -380 c0 -5 -2 -10 -4 -10 -4 0 -2161 -264 -2776
-340 -223 -28 -490 -61 -595 -74 -104 -12 -194 -21 -198 -18 -32 17 -6 20
2378 312 622 76 1145 138 1163 139 17 0 32 -3 32 -9z m-2806 -241 c18 -32 25
-54 19 -60 -6 -6 -14 -4 -22 5 -14 16 -41 11 -54 -11 -12 -19 -51 -16 -72 7
-24 26 -37 25 -33 -2 4 -26 -18 -36 -26 -11 -2 10 -6 36 -8 58 l-3 40 45 0
c43 0 45 -1 45 -30 0 -33 12 -58 25 -50 4 3 11 22 15 42 7 37 21 63 34 63 3 0
19 -23 35 -51z m-214 11 c0 -5 -15 -14 -32 -19 l-33 -9 33 -1 c39 -1 46 -31 7
-31 -14 0 -25 -4 -25 -10 0 -5 14 -10 30 -10 17 0 30 -4 30 -9 0 -12 -26 -21
-60 -21 -25 0 -28 4 -34 50 -4 28 -4 55 -1 60 8 13 85 13 85 0z m-106 -22 c9
-36 7 -98 -4 -98 -5 0 -10 8 -10 18 -1 16 -1 16 -14 0 -7 -10 -18 -18 -24 -18
-6 0 -13 8 -15 18 -4 13 -5 11 -6 -5 -1 -24 -19 -31 -26 -10 -2 6 -6 33 -10
60 -6 43 -4 47 15 47 13 0 25 -10 32 -27 10 -25 12 -26 15 -8 8 37 12 45 27
45 7 0 16 -10 20 -22z m-139 -48 c29 -58 30 -60 10 -60 -8 0 -15 5 -15 10 0
16 -40 12 -46 -5 -9 -22 -37 -19 -30 3 3 9 10 36 16 60 14 56 34 54 65 -8z
m-117 28 c21 -21 13 -30 -18 -23 -28 6 -30 5 -30 -23 0 -32 27 -52 36 -27 7
18 34 20 34 2 0 -35 -56 -50 -84 -21 -24 23 -20 70 6 88 27 19 40 20 56 4z
m3422 -48 c0 -5 -4 -10 -9 -10 -5 0 -79 -9 -163 -20 -84 -11 -504 -63 -933
-115 -1677 -206 -2419 -295 -2446 -295 -16 0 -29 4 -29 8 0 9 123 25 1995 253
677 82 1293 158 1370 168 165 22 215 25 215 11z m-3060 -245 c0 -9 -9 -15 -25
-15 -14 0 -25 -5 -25 -10 0 -6 11 -8 25 -4 19 5 25 2 25 -10 0 -10 -9 -16 -25
-16 -14 0 -25 -4 -25 -10 0 -5 14 -10 31 -10 44 0 32 -24 -14 -28 -41 -4 -43
-1 -50 65 -4 37 -2 42 17 46 46 9 66 7 66 -8z m-100 -10 c0 -8 -6 -15 -14 -15
-10 0 -12 -11 -8 -45 4 -36 2 -45 -11 -45 -11 0 -17 12 -19 43 -2 34 -6 41
-20 39 -11 -2 -18 3 -18 12 0 9 12 16 33 19 17 2 38 5 45 5 6 1 12 -5 12 -13z
m-107 -56 c30 -53 29 -71 -3 -51 -27 16 -50 15 -50 -3 0 -8 -7 -15 -15 -15 -8
0 -15 3 -15 8 0 7 18 76 25 100 9 25 31 11 58 -39z m-120 29 c9 -7 19 -25 22
-40 9 -34 -23 -68 -65 -68 -28 0 -30 2 -30 39 0 22 -3 46 -6 54 -4 11 2 17 18
20 40 8 44 7 61 -5z"/>
<path d="M937 2173 c-4 -3 -7 -19 -7 -35 0 -23 4 -29 18 -26 21 4 28 41 9 56
-8 7 -17 9 -20 5z"/>
<path d="M810 2130 c0 -23 5 -30 19 -30 11 0 23 5 26 10 11 18 -6 50 -26 50
-14 0 -19 -7 -19 -30z"/>
<path d="M695 2140 c-3 -5 3 -10 14 -10 12 0 21 5 21 10 0 6 -6 10 -14 10 -8
0 -18 -4 -21 -10z"/>
<path d="M590 2120 c0 -5 4 -10 9 -10 6 0 13 5 16 10 3 6 -1 10 -9 10 -9 0
-16 -4 -16 -10z"/>
<path d="M2761 1754 c0 -11 3 -14 6 -6 3 7 2 16 -1 19 -3 4 -6 -2 -5 -13z"/>
<path d="M2796 1677 c3 -10 9 -15 12 -12 3 3 0 11 -7 18 -10 9 -11 8 -5 -6z"/>
<path d="M2605 1620 c3 -5 8 -10 11 -10 2 0 4 5 4 10 0 6 -5 10 -11 10 -5 0
-7 -4 -4 -10z"/>
<path d="M3155 1800 c3 -5 14 -10 23 -10 15 0 15 2 2 10 -20 13 -33 13 -25 0z"/>
<path d="M3285 1720 c-30 -8 -30 -8 8 -9 23 -1 36 3 32 9 -3 6 -7 9 -8 9 -1
-1 -15 -5 -32 -9z"/>
<path d="M3291 1564 c0 -11 3 -14 6 -6 3 7 2 16 -1 19 -3 4 -6 -2 -5 -13z"/>
<path d="M3168 1513 c7 -3 16 -2 19 1 4 3 -2 6 -13 5 -11 0 -14 -3 -6 -6z"/>
<path d="M1914 1828 l-19 -23 23 19 c21 18 27 26 19 26 -2 0 -12 -10 -23 -22z"/>
<path d="M1858 1748 c-18 -14 -28 -104 -15 -125 4 -7 9 -38 11 -70 4 -62 33
-146 47 -137 5 3 28 9 51 13 30 6 35 9 17 10 -26 1 -27 4 -27 54 -1 127 -33
267 -60 267 -5 0 -16 -6 -24 -12z"/>
<path d="M1750 1550 c0 -5 5 -10 11 -10 5 0 7 5 4 10 -3 6 -8 10 -11 10 -2 0
-4 -4 -4 -10z"/>
<path d="M1784 1504 c-18 -14 -18 -15 4 -4 12 6 22 13 22 15 0 8 -5 6 -26 -11z"/>
<path d="M1859 1343 c-13 -16 -12 -17 4 -4 9 7 17 15 17 17 0 8 -8 3 -21 -13z"/>
<path d="M1592 1340 c0 -14 2 -19 5 -12 2 6 2 18 0 25 -3 6 -5 1 -5 -13z"/>
<path d="M1280 630 c-13 -8 -12 -10 3 -10 9 0 17 5 17 10 0 12 -1 12 -20 0z"/>
<path d="M935 560 c3 -5 8 -10 11 -10 2 0 4 5 4 10 0 6 -5 10 -11 10 -5 0 -7
-4 -4 -10z"/>
<path d="M844 234 c3 -9 6 -22 6 -30 0 -16 26 -19 35 -4 11 18 -6 50 -27 50
-14 0 -18 -5 -14 -16z"/>
<path d="M3152 4397 c-8 -10 -2 -12 28 -9 21 2 50 -3 66 -11 l29 -15 -50 -7
c-80 -10 -85 -18 -18 -26 66 -8 153 -41 153 -58 0 -6 -13 -17 -30 -26 -38 -20
-38 -35 -1 -35 91 0 45 122 -69 180 -45 23 -93 26 -108 7z"/>
<path d="M3190 4285 c0 -9 83 -65 88 -60 3 3 -3 12 -14 20 -26 21 -74 47 -74
40z"/>
<path d="M3123 4233 c-32 -13 7 -72 68 -103 21 -11 39 -25 39 -30 0 -5 -18 0
-40 11 -55 29 -69 20 -30 -19 58 -58 137 -85 180 -62 31 17 27 80 -7 121 -44
52 -111 89 -157 88 -23 0 -47 -3 -53 -6z m135 -103 c-7 -10 -14 -17 -17 -15
-4 4 18 35 25 35 2 0 -1 -9 -8 -20z"/>
<path d="M3390 4176 c0 -7 7 -19 15 -26 13 -10 18 -11 28 -1 9 10 8 15 -7 27
-25 18 -36 18 -36 0z"/>
<path d="M3465 4171 c-3 -6 -4 -15 -1 -20 3 -5 -3 -11 -15 -14 -19 -5 -20 -7
-4 -36 8 -17 21 -31 28 -31 8 0 7 -4 -3 -10 -11 -7 -12 -14 -4 -27 18 -29 37
-29 32 0 -4 18 -1 24 9 20 18 -7 17 41 -1 60 -10 9 -11 18 -5 24 6 6 3 16 -10
27 -12 11 -21 14 -26 7z"/>
<path d="M3590 4145 c-10 -12 -3 -24 40 -72 29 -31 57 -68 63 -80 20 -44 106
-42 107 1 0 6 -7 1 -15 -10 -13 -18 -14 -16 -15 24 0 54 -26 93 -84 127 -49
28 -78 32 -96 10z"/>
<path d="M3380 4122 c0 -10 33 -42 44 -42 4 0 6 10 4 23 -2 14 -11 23 -25 25
-13 2 -23 -1 -23 -6z"/>
<path d="M3530 4104 c0 -13 21 -44 30 -44 16 0 11 37 -6 44 -19 7 -24 8 -24 0z"/>
<path d="M3594 4085 c8 -16 29 -43 47 -60 l33 -30 -25 33 c-13 18 -34 45 -47
60 l-23 27 15 -30z"/>
<path d="M3530 4042 c0 -5 7 -17 15 -28 12 -16 16 -17 24 -4 7 9 6 19 -1 27
-12 14 -38 18 -38 5z"/>
<path d="M3360 3990 c-21 -39 21 -131 81 -179 32 -25 107 -50 131 -43 24 6 52
47 45 64 -4 9 -6 8 -6 -3 -1 -9 -11 -24 -23 -35 -13 -10 -17 -12 -10 -4 19 22
14 89 -8 126 -49 77 -183 125 -210 74z m55 -40 c3 -5 3 -15 -1 -21 -5 -8 -10
-6 -16 5 -5 9 -14 13 -20 10 -7 -4 -8 -2 -4 4 9 15 33 16 41 2z m49 -28 c3 -5
-1 -9 -9 -9 -8 0 -15 4 -15 9 0 4 4 8 9 8 6 0 12 -4 15 -8z m61 -119 c4 -14 2
-23 -4 -23 -6 0 -11 3 -11 8 0 4 -3 18 -6 32 -8 31 11 16 21 -17z"/>
<path d="M3602 3978 c-7 -7 -12 -24 -12 -40 0 -20 8 -31 30 -43 46 -24 68 -20
77 16 l8 30 23 -23 c15 -17 24 -42 28 -86 7 -59 6 -61 -15 -55 -12 3 -31 20
-43 37 -32 44 -88 88 -88 67 0 -17 50 -69 97 -100 33 -22 41 -31 27 -32 -10 0
-14 -3 -7 -5 22 -9 74 27 89 61 17 41 18 76 3 128 -13 47 -18 44 -21 -11 l-1
-42 -48 45 c-66 61 -119 81 -147 53z m194 -186 c-18 -16 -18 -16 -6 6 6 13 14
21 18 18 3 -4 -2 -14 -12 -24z"/>
<path d="M3648 3603 c7 -3 16 -2 19 1 4 3 -2 6 -13 5 -11 0 -14 -3 -6 -6z"/>
<path d="M3816 3567 c-18 -111 -26 -180 -21 -185 6 -6 164 29 170 37 5 8 -25
154 -33 162 -4 4 -30 9 -59 12 l-52 6 -5 -32z"/>
<path d="M542 3579 c2 -7 10 -15 17 -17 8 -3 12 1 9 9 -2 7 -10 15 -17 17 -8
3 -12 -1 -9 -9z"/>
<path d="M500 3566 c0 -2 7 -9 15 -16 13 -11 14 -10 9 4 -5 14 -24 23 -24 12z"/>
<path d="M256 3431 c-3 -5 1 -14 9 -21 12 -10 15 -10 15 3 0 19 -16 31 -24 18z"/>
<path d="M1343 3343 c-33 -6 -28 -23 7 -23 22 0 28 4 24 15 -4 8 -7 14 -8 14
0 -1 -11 -4 -23 -6z"/>
<path d="M1230 3336 c0 -2 9 -6 20 -9 11 -3 18 -1 14 4 -5 9 -34 13 -34 5z"/>
<path d="M1684 3209 c-7 -12 13 -29 36 -29 23 0 43 17 36 29 -4 6 -20 11 -36
11 -16 0 -32 -5 -36 -11z"/>
<path d="M1567 3173 c-11 -11 14 -33 38 -33 24 0 49 22 38 33 -3 4 -21 7 -38
7 -17 0 -35 -3 -38 -7z"/>
<path d="M1866 3156 c21 -15 30 -14 19 3 -3 6 -14 11 -23 11 -13 0 -13 -2 4
-14z"/>
<path d="M1947 3115 c-4 -9 -12 -15 -19 -14 -24 3 -53 -3 -40 -8 6 -2 10 -9 6
-14 -8 -13 10 -11 23 2 6 6 17 8 23 4 9 -6 9 -10 -1 -16 -10 -6 -11 -9 -1 -9
16 0 15 -39 -3 -74 -19 -36 -19 -41 0 -22 8 8 15 21 15 30 0 8 5 18 10 21 12
7 13 85 1 103 -7 11 -9 10 -14 -3z"/>
<path d="M1507 3093 c-10 -9 -9 -23 2 -23 5 0 11 7 15 15 5 15 -5 20 -17 8z"/>
<path d="M1540 3080 c0 -21 16 -26 39 -11 18 11 5 31 -20 31 -12 0 -19 -7 -19
-20z"/>
<path d="M1831 3082 c-1 -7 -12 -24 -26 -37 -13 -14 -21 -25 -16 -25 15 0 53
49 48 62 -4 10 -6 10 -6 0z"/>
<path d="M1630 3073 c0 -16 36 -53 52 -53 7 0 3 7 -9 15 -13 9 -27 23 -32 33
-6 10 -11 12 -11 5z"/>
<path d="M1578 3003 c-24 -6 -23 -30 2 -38 27 -9 60 3 60 21 0 8 -4 14 -9 14
-5 0 -15 2 -23 4 -7 2 -21 2 -30 -1z"/>
<path d="M1824 2999 c-7 -12 12 -29 33 -29 22 0 43 12 43 26 0 17 -65 20 -76
3z"/>
<path d="M1691 2951 c-22 -14 -3 -31 35 -31 28 0 35 4 32 18 -4 19 -45 27 -67
13z"/>
<path d="M1394 2919 c-8 -14 14 -29 42 -29 23 0 48 23 37 33 -11 11 -71 8 -79
-4z"/>
<path d="M2036 2906 c21 -15 30 -14 19 3 -3 6 -14 11 -23 11 -13 0 -13 -2 4
-14z"/>
<path d="M1500 2886 c0 -2 8 -10 18 -17 15 -13 16 -12 3 4 -13 16 -21 21 -21
13z"/>
<path d="M1914 2848 l-19 -23 23 19 c21 18 27 26 19 26 -2 0 -12 -10 -23 -22z"/>
<path d="M1353 2849 c-29 -10 -29 -26 -2 -34 27 -9 71 3 67 17 -6 17 -41 26
-65 17z"/>
<path d="M2001 2832 c-1 -7 -12 -24 -26 -37 -13 -14 -21 -25 -16 -25 15 0 53
49 48 62 -4 10 -6 10 -6 0z"/>
<path d="M1460 2823 c0 -16 36 -53 52 -53 7 0 3 7 -9 15 -13 9 -27 23 -32 33
-6 10 -11 12 -11 5z"/>
<path d="M1584 2815 c11 -8 24 -15 29 -15 5 0 7 -7 3 -15 -4 -12 0 -14 20 -9
23 6 24 4 18 -21 -5 -20 -4 -26 5 -21 6 4 11 16 11 27 0 17 8 19 63 20 l62 2
-80 7 c-44 4 -96 15 -115 24 -28 13 -31 14 -16 1z"/>
<path d="M1832 2806 l-33 -12 26 -12 c31 -14 46 -16 25 -2 -13 8 -12 11 5 24
23 18 22 18 -23 2z"/>
<path d="M1408 2753 c-24 -6 -23 -30 2 -38 27 -9 60 3 60 21 0 8 -4 14 -9 14
-5 0 -15 2 -23 4 -7 2 -21 2 -30 -1z"/>
<path d="M1743 2753 c-20 -7 -15 -31 7 -38 26 -8 60 3 60 20 0 18 -41 29 -67
18z"/>
<path d="M1994 2749 c-7 -12 12 -29 33 -29 22 0 43 12 43 26 0 17 -65 20 -76
3z"/>
<path d="M1672 2728 c2 -6 10 -14 16 -16 7 -2 10 2 6 12 -7 18 -28 22 -22 4z"/>
<path d="M1521 2701 c-22 -14 -3 -31 35 -31 28 0 35 4 32 18 -4 19 -45 27 -67
13z"/>
<path d="M1861 2701 c-22 -14 -3 -31 35 -31 28 0 35 4 32 18 -4 19 -45 27 -67
13z"/>
<path d="M1717 2680 c3 -11 10 -23 15 -26 5 -3 4 -11 -2 -19 -15 -19 13 -33
65 -33 29 0 43 -6 53 -21 17 -25 82 -30 82 -6 0 14 56 35 93 35 9 0 17 4 17
10 0 5 7 7 15 4 11 -5 15 1 15 19 0 14 3 33 6 42 5 13 -1 12 -37 -7 -58 -30
-178 -37 -245 -14 -60 20 -61 20 -38 -6 l19 -23 -22 19 c-12 10 -21 23 -20 28
1 6 -3 12 -10 15 -7 3 -9 -3 -6 -17z m200 -106 c-3 -3 -12 -4 -19 -1 -8 3 -5
6 6 6 11 1 17 -2 13 -5z"/>
</g>
</svg>
